<svg xmlns="http://www.w3.org/2000/svg" width="1200" height="600" viewBox="0 0 1200 600">
  <defs>
    <linearGradient id="pbg" x1="0" y1="0" x2="1" y2="1">
      <stop offset="0%" stop-color="#111"/>
      <stop offset="100%" stop-color="#0a0a0a"/>
    </linearGradient>
  </defs>
  <rect width="1200" height="600" fill="url(#pbg)"/>
  <!-- Microphone icon -->
  <g transform="translate(600,240)" opacity="0.6">
    <rect x="-20" y="-80" width="40" height="100" rx="20" fill="none" stroke="#E70100" stroke-width="2.5"/>
    <path d="M-40 10 C-40 50, 40 50, 40 10" fill="none" stroke="#E70100" stroke-width="2.5"/>
    <line x1="0" y1="50" x2="0" y2="80" stroke="#E70100" stroke-width="2.5"/>
    <line x1="-25" y1="80" x2="25" y2="80" stroke="#E70100" stroke-width="2.5"/>
  </g>
  <!-- Sound waves -->
  <g transform="translate(600,200)" opacity="0.15">
    <path d="M60,-60 C90,-30, 90,90, 60,120" fill="none" stroke="#E70100" stroke-width="2"/>
    <path d="M80,-80 C120,-40, 120,100, 80,140" fill="none" stroke="#E70100" stroke-width="2"/>
    <path d="M-60,-60 C-90,-30, -90,90, -60,120" fill="none" stroke="#E70100" stroke-width="2"/>
    <path d="M-80,-80 C-120,-40, -120,100, -80,140" fill="none" stroke="#E70100" stroke-width="2"/>
  </g>
  <!-- Text -->
  <text x="600" y="420" font-family="'Helvetica Neue', Arial, sans-serif" font-size="42" font-weight="bold" fill="#ffffff" text-anchor="middle" letter-spacing="8">BIG THINKERS PODCAST</text>
  <line x1="380" y1="445" x2="820" y2="445" stroke="#E70100" stroke-width="2" stroke-opacity="0.6"/>
  <text x="600" y="480" font-family="'Helvetica Neue', Arial, sans-serif" font-size="16" fill="#ffffff" fill-opacity="0.4" text-anchor="middle" letter-spacing="4">FEATURED EPISODE</text>
</svg>
